<svg width="83" height="24" viewBox="0 0 83 24" fill="none" xmlns="http://www.w3.org/2000/svg">
<path d="M3.12276 20.3231C2.8074 17.3941 3.00424 15.7526 3.12276 12.7304C3.22333 10.1659 3.17544 6.68703 4.87565 4.78198C6.28348 3.20454 9.52168 2.40427 11.6895 3.37409C14.3859 4.58038 14.8319 8.58296 15.0751 11.1188C15.3342 13.8215 14.8424 17.7583 17.1449 19.7366C19.0819 21.4007 24.1289 21.0285 25.8899 19.2674C28.3994 16.758 26.817 7.04196 27.1226 3.37408" stroke="url(#paint0_linear_2_36)" stroke-width="4.40259" stroke-linecap="round" stroke-linejoin="round"/>
<path d="M41.4144 6.87928C42.796 6.87928 43.8544 7.12725 44.5894 7.62321C45.3245 8.11031 45.6921 8.87196 45.6921 9.90815C45.6921 10.5547 45.5415 11.0816 45.2404 11.489C44.9481 11.8875 44.523 12.202 43.9651 12.4322C44.1511 12.6625 44.3459 12.9282 44.5496 13.2293C44.7533 13.5215 44.9526 13.8315 45.1474 14.1592C45.3511 14.478 45.5459 14.8146 45.7319 15.1688C45.9179 15.5142 46.0906 15.8552 46.25 16.1917H43.9252C43.7569 15.8906 43.5842 15.5851 43.4071 15.2751C43.2388 14.9651 43.0617 14.664 42.8757 14.3718C42.6986 14.0795 42.5215 13.805 42.3444 13.5481C42.1672 13.2824 41.9901 13.0433 41.813 12.8308H40.7901V16.1917H38.7177V7.1184C39.1693 7.02983 39.6343 6.96784 40.1125 6.93241C40.5996 6.89699 41.0336 6.87928 41.4144 6.87928ZM41.534 8.64612C41.3834 8.64612 41.2462 8.65055 41.1222 8.6594C41.007 8.66826 40.8963 8.67712 40.7901 8.68597V11.1835H41.3746C42.1539 11.1835 42.7119 11.086 43.0484 10.8912C43.385 10.6964 43.5532 10.3643 43.5532 9.89487C43.5532 9.44319 43.3805 9.12436 43.0351 8.93838C42.6986 8.74354 42.1982 8.64612 41.534 8.64612ZM47.5784 16.1917V6.98555H53.7955V8.72583H49.6507V10.5325H53.3306V12.2329H49.6507V14.4515H54.1011V16.1917H47.5784ZM58.514 16.1917C58.1509 15.4212 57.7922 14.6197 57.438 13.7872C57.0837 12.9547 56.7472 12.1311 56.4284 11.3163C56.1095 10.5015 55.8128 9.72217 55.5383 8.97823C55.2726 8.2343 55.0423 7.57007 54.8475 6.98555H57.1324C57.3096 7.51693 57.5 8.0926 57.7037 8.71254C57.9162 9.32363 58.1288 9.93472 58.3413 10.5458C58.5627 11.1569 58.7753 11.7414 58.979 12.2994C59.1827 12.8573 59.3731 13.34 59.5502 13.7474C59.7185 13.34 59.9045 12.8573 60.1082 12.2994C60.3207 11.7414 60.5333 11.1569 60.7458 10.5458C60.9672 9.93472 61.1798 9.32363 61.3835 8.71254C61.596 8.0926 61.7909 7.51693 61.968 6.98555H64.1732C63.9695 7.57007 63.7349 8.2343 63.4692 8.97823C63.2035 9.72217 62.9112 10.5015 62.5924 11.3163C62.2736 12.1311 61.937 12.9547 61.5828 13.7872C61.2285 14.6197 60.8698 15.4212 60.5067 16.1917H58.514ZM70.798 16.1917C70.612 15.8906 70.3906 15.5674 70.1337 15.222C69.8858 14.8677 69.6112 14.5179 69.3101 14.1725C69.0178 13.8182 68.7123 13.4817 68.3935 13.1629C68.0746 12.8352 67.7558 12.5473 67.437 12.2994V16.1917H65.3646V6.98555H67.437V10.4661C67.9772 9.8993 68.5175 9.31035 69.0577 8.69926C69.6068 8.07931 70.116 7.50808 70.5854 6.98555H73.0431C72.4143 7.72949 71.781 8.44685 71.1434 9.13765C70.5146 9.82844 69.8503 10.5237 69.1507 11.2233C69.8858 11.8344 70.5943 12.5606 71.2762 13.402C71.967 14.2433 72.6268 15.1733 73.2556 16.1917H70.798ZM78.0459 16.3777C77.3994 16.3777 76.8415 16.2892 76.3721 16.112C75.9027 15.9261 75.513 15.6736 75.2031 15.3548C74.9019 15.0271 74.6761 14.6419 74.5255 14.1991C74.3838 13.7474 74.313 13.2514 74.313 12.7112V6.98555H76.3854V12.5385C76.3854 12.9105 76.4252 13.2293 76.5049 13.495C76.5935 13.7518 76.7086 13.9644 76.8503 14.1326C77.0009 14.2921 77.178 14.4072 77.3817 14.478C77.5943 14.5489 77.8245 14.5843 78.0725 14.5843C78.5773 14.5843 78.9847 14.4293 79.2947 14.1194C79.6135 13.8094 79.7729 13.2824 79.7729 12.5385V6.98555H81.8453V12.7112C81.8453 13.2514 81.77 13.7474 81.6195 14.1991C81.4689 14.6507 81.2387 15.0404 80.9287 15.3681C80.6187 15.6869 80.2246 15.9349 79.7464 16.112C79.2681 16.2892 78.7013 16.3777 78.0459 16.3777Z" fill="white"/>
<defs>
<linearGradient id="paint0_linear_2_36" x1="-2.06656" y1="11.7575" x2="32.4498" y2="11.7575" gradientUnits="userSpaceOnUse">
<stop stop-color="#BD00FF"/>
<stop offset="1" stop-color="#5369DD"/>
</linearGradient>
</defs>
</svg>
