<svg width="163" height="47" viewBox="0 0 163 47" fill="none" xmlns="http://www.w3.org/2000/svg">
<path d="M17.4651 0.807244C17.7493 1.15251 17.9233 1.57505 17.9648 2.02026C18.0064 2.46548 17.9134 2.91291 17.698 3.30476C16.0151 6.39455 15.1362 9.85794 15.1423 13.3763C15.1423 25.0809 24.684 34.5586 36.4439 34.5586C37.9779 34.5586 39.4712 34.3985 40.9062 34.0929C41.3461 33.9976 41.8043 34.034 42.2237 34.1976C42.643 34.3612 43.0048 34.6447 43.264 35.0127C43.5376 35.3953 43.6771 35.8576 43.6608 36.3277C43.6444 36.7978 43.4732 37.2493 43.1738 37.6121C40.8907 40.4165 38.0106 42.6761 34.7435 44.2261C31.4763 45.7761 27.9044 46.5774 24.2882 46.5717C10.8691 46.5717 0 35.7608 0 22.4407C0 12.4157 6.15354 3.81707 14.9152 0.172677C15.3517 -0.0117779 15.8362 -0.0496366 16.296 0.0647886C16.7558 0.179214 17.166 0.439744 17.4651 0.807244Z" fill="url(#paint0_linear_2_9)"/>
<path d="M31.4198 9.16151C31.4615 9.03545 31.5419 8.92576 31.6496 8.84801C31.7572 8.77026 31.8866 8.72841 32.0194 8.72841C32.1522 8.72841 32.2816 8.77026 32.3892 8.84801C32.4969 8.92576 32.5773 9.03545 32.619 9.16151L33.7455 12.5439C34.2491 14.0517 35.4309 15.2336 36.9387 15.7371L40.3212 16.8636C40.4472 16.9054 40.5569 16.9858 40.6347 17.0934C40.7124 17.2011 40.7542 17.3305 40.7542 17.4633C40.7542 17.5961 40.7124 17.7255 40.6347 17.8331C40.5569 17.9408 40.4472 18.0212 40.3212 18.0629L36.9387 19.1894C36.1951 19.4372 35.5194 19.8547 34.9651 20.409C34.4109 20.9632 33.9933 21.639 33.7455 22.3826L32.619 25.765C32.5773 25.8911 32.4969 26.0008 32.3892 26.0785C32.2816 26.1563 32.1522 26.1981 32.0194 26.1981C31.8866 26.1981 31.7572 26.1563 31.6496 26.0785C31.5419 26.0008 31.4615 25.8911 31.4198 25.765L30.2933 22.3826C30.0455 21.639 29.6279 20.9632 29.0737 20.409C28.5194 19.8547 27.8437 19.4372 27.1001 19.1894L23.7176 18.0629C23.5916 18.0212 23.4819 17.9408 23.4041 17.8331C23.3264 17.7255 23.2845 17.5961 23.2845 17.4633C23.2845 17.3305 23.3264 17.2011 23.4041 17.0934C23.4819 16.9858 23.5916 16.9054 23.7176 16.8636L27.1001 15.7371C27.8437 15.4894 28.5194 15.0718 29.0737 14.5176C29.6279 13.9633 30.0455 13.2876 30.2933 12.5439L31.4198 9.16151ZM40.3532 0.286318C40.3819 0.203436 40.4358 0.131565 40.5072 0.0807003C40.5787 0.0298351 40.6642 0.00250244 40.752 0.00250244C40.8397 0.00250244 40.9252 0.0298351 40.9967 0.0807003C41.0682 0.131565 41.122 0.203436 41.1507 0.286318L41.9017 2.53932C42.2365 3.54647 43.0253 4.33532 44.0325 4.67006L46.2855 5.42106C46.3684 5.4498 46.4402 5.50364 46.4911 5.57511C46.542 5.64658 46.5693 5.73213 46.5693 5.81985C46.5693 5.90757 46.542 5.99312 46.4911 6.06459C46.4402 6.13606 46.3684 6.1899 46.2855 6.21864L44.0325 6.96964C43.5362 7.13475 43.0851 7.4133 42.7153 7.78317C42.3454 8.15304 42.0669 8.60405 41.9017 9.10038L41.1507 11.3534C41.122 11.4363 41.0682 11.5081 40.9967 11.559C40.9252 11.6099 40.8397 11.6372 40.752 11.6372C40.6642 11.6372 40.5787 11.6099 40.5072 11.559C40.4358 11.5081 40.3819 11.4363 40.3532 11.3534L39.6022 9.10038C39.4371 8.60405 39.1585 8.15304 38.7886 7.78317C38.4188 7.4133 37.9678 7.13475 37.4714 6.96964L35.2184 6.21864C35.1355 6.1899 35.0637 6.13606 35.0128 6.06459C34.9619 5.99312 34.9346 5.90757 34.9346 5.81985C34.9346 5.73213 34.9619 5.64658 35.0128 5.57511C35.0637 5.50364 35.1355 5.4498 35.2184 5.42106L37.4714 4.67006C38.4786 4.33532 39.2674 3.54647 39.6022 2.53932L40.3532 0.289229V0.286318Z" fill="url(#paint1_linear_2_9)"/>
<path d="M77.1512 31.2191C77.8408 31.2191 78.405 31.1669 78.8438 31.0624C79.3035 30.937 79.6692 30.7803 79.9409 30.5922C80.2125 30.3832 80.4006 30.1429 80.5051 29.8713C80.6096 29.5996 80.6618 29.2966 80.6618 28.9623C80.6618 28.2518 80.3275 27.6667 79.6588 27.2069C78.9901 26.7263 77.8408 26.2143 76.2108 25.671C75.5003 25.4203 74.7899 25.1382 74.0794 24.8247C73.3689 24.4904 72.7315 24.0829 72.1673 23.6023C71.6031 23.1007 71.1434 22.5052 70.7881 21.8156C70.4329 21.1051 70.2553 20.2483 70.2553 19.2453C70.2553 18.2422 70.4433 17.3437 70.8195 16.5496C71.1956 15.7346 71.7285 15.0451 72.4181 14.4808C73.1077 13.9166 73.9435 13.4882 74.9257 13.1957C75.9078 12.8822 77.0153 12.7255 78.2483 12.7255C79.711 12.7255 80.9753 12.8822 82.041 13.1957C83.1067 13.5091 83.9844 13.8539 84.674 14.2301L83.2635 18.0855C82.6575 17.7721 81.9783 17.5004 81.226 17.2706C80.4947 17.0198 79.6065 16.8944 78.5617 16.8944C77.3915 16.8944 76.5452 17.0616 76.0228 17.3959C75.5212 17.7094 75.2705 18.2005 75.2705 18.8691C75.2705 19.2662 75.3645 19.6005 75.5526 19.8722C75.7407 20.1438 76.0019 20.3946 76.3362 20.6245C76.6915 20.8334 77.0885 21.032 77.5273 21.22C77.987 21.3872 78.4886 21.5648 79.0319 21.7529C80.1603 22.1708 81.1424 22.5888 81.9783 23.0067C82.8142 23.4037 83.5038 23.8739 84.0471 24.4172C84.6113 24.9605 85.0292 25.5979 85.3009 26.3293C85.5725 27.0607 85.7084 27.9488 85.7084 28.9936C85.7084 31.0206 84.9979 32.5983 83.5769 33.7267C82.1559 34.8342 80.014 35.388 77.1512 35.388C76.1899 35.388 75.3227 35.3253 74.5495 35.1999C73.7764 35.0954 73.0868 34.9596 72.4808 34.7924C71.8957 34.6253 71.3837 34.4476 70.9449 34.2596C70.5269 34.0715 70.1717 33.8939 69.8791 33.7267L71.2583 29.8399C71.9061 30.1952 72.7002 30.5191 73.6405 30.8116C74.6018 31.0833 75.772 31.2191 77.1512 31.2191ZM103.984 30.7489V34.9492H89.4708V13.227H94.3606V30.7489H103.984ZM107.133 34.9492V13.227H121.802V17.3332H112.023V21.5962H120.705V25.6083H112.023V30.843H122.523V34.9492H107.133ZM126.142 34.9492V13.227H140.812V17.3332H131.032V21.5962H139.714V25.6083H131.032V30.843H141.532V34.9492H126.142ZM151.671 12.9763C154.91 12.9763 157.397 13.5509 159.131 14.7003C160.865 15.8287 161.733 17.6885 161.733 20.2797C161.733 22.8918 160.855 24.7829 159.1 25.9531C157.344 27.1024 154.837 27.6771 151.577 27.6771H150.041V34.9492H145.151V13.5405C146.217 13.3315 147.345 13.1852 148.536 13.1017C149.727 13.0181 150.772 12.9763 151.671 12.9763ZM151.984 17.1452C151.629 17.1452 151.274 17.1556 150.919 17.1765C150.584 17.1974 150.292 17.2183 150.041 17.2392V23.5082H151.577C153.269 23.5082 154.544 23.2784 155.401 22.8186C156.258 22.3589 156.686 21.5021 156.686 20.2483C156.686 19.6423 156.571 19.1408 156.341 18.7438C156.132 18.3467 155.819 18.0333 155.401 17.8034C155.004 17.5527 154.513 17.3855 153.928 17.3019C153.343 17.1974 152.695 17.1452 151.984 17.1452Z" fill="white"/>
<defs>
<linearGradient id="paint0_linear_2_9" x1="6.81539e-08" y1="23.8033" x2="45.679" y2="23.8033" gradientUnits="userSpaceOnUse">
<stop stop-color="#9916FF"/>
<stop offset="1" stop-color="#424FC2"/>
</linearGradient>
<linearGradient id="paint1_linear_2_9" x1="23.2845" y1="13.3914" x2="47.645" y2="13.3914" gradientUnits="userSpaceOnUse">
<stop stop-color="#9916FF"/>
<stop offset="1" stop-color="#424FC2"/>
</linearGradient>
</defs>
</svg>
